<svg xmlns="http://www.w3.org/2000/svg" viewBox="0 0 256 256">
  <defs>
    <linearGradient id="bg" x1="0" y1="0" x2="1" y2="1">
      <stop offset="0" stop-color="#5b7cfa"/>
      <stop offset="1" stop-color="#3a4fd6"/>
    </linearGradient>
  </defs>
  <rect x="8" y="8" width="240" height="240" rx="56" fill="url(#bg)"/>
  <rect x="48" y="62" width="160" height="146" rx="18" fill="#ffffff"/>
  <path d="M48 80a18 18 0 0 1 18-18h124a18 18 0 0 1 18 18v22H48z" fill="#dfe5ff"/>
  <rect x="82" y="44" width="14" height="36" rx="7" fill="#ffffff"/>
  <rect x="160" y="44" width="14" height="36" rx="7" fill="#ffffff"/>
  <rect x="68" y="120" width="34" height="22" rx="6" fill="#f59e0b"/>
  <rect x="111" y="120" width="34" height="22" rx="6" fill="#14b8a6"/>
  <rect x="68" y="152" width="34" height="22" rx="6" fill="#ec4899" opacity="0.9"/>
  <circle cx="171" cy="163" r="30" fill="#22a55b"/>
  <path d="m157 163 10 10 19-20" fill="none" stroke="#fff" stroke-width="10" stroke-linecap="round" stroke-linejoin="round"/>
</svg>
